<?xml version="1.0" encoding="utf-8"?>
<!-- Generator: Adobe Illustrator 22.0.1, SVG Export Plug-In . SVG Version: 6.00 Build 0)  -->
<svg version="1.1" id="Layer_1" xmlns="http://www.w3.org/2000/svg" xmlns:xlink="http://www.w3.org/1999/xlink" x="0px" y="0px"
	 viewBox="0 0 384.7 383" style="enable-background:new 0 0 384.7 383;" xml:space="preserve">
<style type="text/css">
	.st0{fill:#E53E3E;enable-background:new    ;}
	.st1{fill:#FFFFFF;}
</style>
<g>
	<path class="st0" d="M352.4,42.2h-320c-17.7,0-32,14.3-32,32v234.6c0,17.7,14.3,32,32,32h320c17.7,0,32-14.3,32-32V74.2
		C384.4,56.5,370,42.2,352.4,42.2z M117.7,106.2c23.6,0,42.7,19.1,42.7,42.7s-19.1,42.7-42.7,42.7s-42.7-19.1-42.7-42.7
		C75.1,125.3,94.2,106.2,117.7,106.2z M192.4,264c0,7.1-6.7,12.8-14.9,12.8H58c-8.3,0-14.9-5.7-14.9-12.8v-12.8
		c0-21.2,20.1-38.4,44.8-38.4h3.3c17,7.1,36.1,7.1,53.1,0h3.3c24.7,0,44.8,17.2,44.8,38.4V264z M341.7,228.8c0,2.9-2.4,5.3-5.3,5.3
		h-96c-2.9,0-5.3-2.4-5.3-5.3v-10.7c0-2.9,2.4-5.3,5.3-5.3h96c2.9,0,5.3,2.4,5.3,5.3V228.8z M341.7,186.2c0,2.9-2.4,5.3-5.3,5.3h-96
		c-2.9,0-5.3-2.4-5.3-5.3v-10.7c0-2.9,2.4-5.3,5.3-5.3h96c2.9,0,5.3,2.4,5.3,5.3V186.2z M341.7,143.5c0,2.9-2.4,5.3-5.3,5.3h-96
		c-2.9,0-5.3-2.4-5.3-5.3v-10.7c0-2.9,2.4-5.3,5.3-5.3h96c2.9,0,5.3,2.4,5.3,5.3V143.5z"/>
	<path class="st1" d="M117.7,191.5c23.6,0,42.7-19.1,42.7-42.7s-19.1-42.7-42.7-42.7s-42.7,19.1-42.7,42.7
		C75.1,172.4,94.2,191.5,117.7,191.5z M147.6,212.8h-3.3c-17,7.1-36.1,7.1-53.1,0h-3.3c-24.7,0-44.8,17.2-44.8,38.4V264
		c0,7.1,6.7,12.8,14.9,12.8h119.5c8.3,0,14.9-5.7,14.9-12.8v-12.8C192.4,230,172.3,212.8,147.6,212.8z"/>
</g>
</svg>
