<?xml version="1.0" encoding="utf-8"?>
<!-- Generator: Adobe Illustrator 22.0.1, SVG Export Plug-In . SVG Version: 6.00 Build 0)  -->
<svg version="1.1" id="Layer_1" xmlns="http://www.w3.org/2000/svg" xmlns:xlink="http://www.w3.org/1999/xlink" x="0px" y="0px"
	 viewBox="0 0 384.7 383" style="enable-background:new 0 0 384.7 383;" xml:space="preserve">
<style type="text/css">
	.st0{fill:#E53E3E;enable-background:new    ;}
	.st1{fill:#FFFFFF;}
</style>
<g>
	<path class="st0" d="M364.4,168.1c-10.5-9.6-24.2-14.9-38.4-15V76.4H57.4v76.7c-14.2,0.1-27.9,5.4-38.4,15V67.8
		C19.1,51.4,32,38,47.8,38h287.8c15.9,0,28.8,13.3,28.8,29.7V168.1z"/>
	<path class="st1" d="M345.2,268.2h-38.4c-21.2,0-38.4,17.2-38.4,38.4v19.2c0,10.6,8.6,19.2,19.2,19.2h76.7
		c10.6,0,19.2-8.6,19.2-19.2v-19.2C383.6,285.4,366.4,268.2,345.2,268.2z M326,249.1c21.2,0,38.4-17.2,38.4-38.4
		s-17.2-38.4-38.4-38.4c-21.2,0-38.4,17.2-38.4,38.4S304.8,249.1,326,249.1z M210.9,268.2h-38.4c-21.2,0-38.4,17.2-38.4,38.4v19.2
		c0,10.6,8.6,19.2,19.2,19.2h76.7c10.6,0,19.2-8.6,19.2-19.2v-19.2C249.3,285.4,232.1,268.2,210.9,268.2z M76.6,268.2H38.2
		c-21.2,0-38.4,17.2-38.4,38.4v19.2c0,10.6,8.6,19.2,19.2,19.2h76.7c10.6,0,19.2-8.6,19.2-19.2v-19.2
		C115,285.4,97.8,268.2,76.6,268.2z M191.7,249.1c21.2,0,38.4-17.2,38.4-38.4s-17.2-38.4-38.4-38.4s-38.4,17.2-38.4,38.4
		S170.5,249.1,191.7,249.1z M57.4,249.1c21.2,0,38.4-17.2,38.4-38.4s-17.2-38.4-38.4-38.4s-38.4,17.2-38.4,38.4
		S36.2,249.1,57.4,249.1z"/>
</g>
</svg>
