<svg xmlns="http://www.w3.org/2000/svg" viewBox="0 0 783 138.97"><defs><style>.cls-1{fill:#fff;}</style></defs><title>Asset 15</title><g id="Layer_2" data-name="Layer 2"><g id="Layer_1-2" data-name="Layer 1"><path class="cls-1" d="M51.86,53.39A70.7,70.7,0,0,0,81.19,41.28c.58,1.48,1.13,3,1.64,4.45.48,1.72.89,3.42,1.26,5.09A65.72,65.72,0,0,1,53.5,65.7c-.29-1.64-.13-3.33-.48-4.81A65,65,0,0,1,51.86,53.39Zm33,1.22A69.12,69.12,0,0,1,54.79,68.87a1.84,1.84,0,0,1,.08,1.33c-1.53,2.84.63,5.25.67,7.64,0,.82,0,1.64,0,2.46A65.51,65.51,0,0,0,86,64.91,77.92,77.92,0,0,0,84.86,54.61ZM44.17,11a5.24,5.24,0,0,0,2.51,4.84c.59.37,1.39.75,1.4,1.51.08,3.5-.31,7.05,1.55,10.28.1.18-.13.58-.27.85-1.65,3.35,2,7-.6,10.36-.12.14.51.8.7,1.27.29.75.9,1.66.7,2.28-1,2.88.67,5.19,1.23,7.62a67.22,67.22,0,0,0,28.48-12A87.77,87.77,0,0,0,55.77,5.3C50.89,1.23,45.51-1.14,38.89.55l-.18,0c.4,1.58.82,3.15,1.27,4.71C42.44,5.64,44.11,7.71,44.17,11ZM55.52,83.73c0,1.51,0,3,0,4.55,0,2.39-1.91,5.09-.93,8a1.31,1.31,0,0,1-.27,1.15,5.71,5.71,0,0,0-1.93,3.39,1.24,1.24,0,0,1,.5,1.5c-.26.8-.47,1.61-.65,2.43a1.85,1.85,0,0,1-.14.79c-.56,3.11-.61,6.29-.91,9.43a4.77,4.77,0,0,1,1.14.59c4.67,3.25,9.12,2.22,13.16-1A52.12,52.12,0,0,0,82.35,90,68.21,68.21,0,0,0,86,69.35,69.06,69.06,0,0,1,55.52,83.73Zm-19.25-29c3,0,6-.14,9.15-.44,1.38,3.46,2.62,7,3.83,10.52.18.53.34,1.06.5,1.59C25.87,70.07,3.74,62.52,0,61.16a51.35,51.35,0,0,1,2-11.9A115.49,115.49,0,0,0,36.27,54.71ZM52,81a54.18,54.18,0,0,0-1.33-11.35,91.69,91.69,0,0,1-14.37,1.11A117,117,0,0,1,0,64.74,50.48,50.48,0,0,0,1.67,76.13C6.69,77.91,28.61,84.93,52,81ZM51.9,84.4a91.28,91.28,0,0,1-14.52,1.14A117.5,117.5,0,0,1,2.87,80.1,66.79,66.79,0,0,0,9.25,93.37,64.17,64.17,0,0,0,35,116.88c3.53,1.83,6.94,2.53,10.19.78V117a1.45,1.45,0,0,1,2.37-1.07l0,0a4.13,4.13,0,0,1,.68-.54c.4-3.32.41-6.7.94-10a1.47,1.47,0,0,1,.45-2.21c.05-.22.11-.43.17-.65a20.91,20.91,0,0,1,.47-4.91A88.47,88.47,0,0,0,51.9,84.4ZM44.06,51A84.21,84.21,0,0,0,39,41.07c-1.53-2.52-3.74-4.59-2.36-7.94.21-.5-.37-1.32-.58-2C35,27.68,36,23.81,34,20.5c-.13-.23.15-.8.37-1.13,1.34-2,.68-3.74-.41-5.64a5.56,5.56,0,0,1,3.11-8.12Q36.43,3.24,35.82.85a20.76,20.76,0,0,1-3-.32C28.21-.3,25,1.72,22.4,5.21a39,39,0,0,0-5.26,9.62,252.83,252.83,0,0,1-11,23.83A62.87,62.87,0,0,0,3,46C10.11,48.32,26.18,52.54,44.06,51ZM146.35,36a20.22,20.22,0,0,0-7.49,1.28,31.47,31.47,0,0,0-5.64,2.89c-.87.6-1.61,1.17-2.21,1.68s-1.13,1-1.57,1.44L127.74,45V6.41c0-1-.21-1.47-.41-1.59a3.61,3.61,0,0,0-1.85-.39H110.72a3.05,3.05,0,0,0-1.87.38c-.07.05-.38.38-.38,1.73V88.63a44.44,44.44,0,0,0,.52,7.81,8.31,8.31,0,0,0,2.8,4.59l.15.13.08.17c.19.15.35.28.48.4a23.11,23.11,0,0,0,9,4.43,48.85,48.85,0,0,0,11.75,1.65h.92c11.52,0,19.91-3.61,24.92-10.75A48.15,48.15,0,0,0,167.84,73c.08-1,.15-1.94.2-2.88s.06-1.84.06-2.73a45.05,45.05,0,0,0-5.29-22.13C159.36,39,154,36,146.35,36Zm-1,53.18C143,94.33,139.76,97,135.64,97c-2.58,0-4.47-.8-5.61-2.38a11.31,11.31,0,0,1-2-4.83c-.1-.88-.17-1.69-.22-2.47s-.06-1.51-.06-2.16V51.76l.48-.29c.48-.29.9-.52,1.29-.71l1.08-.54a9.29,9.29,0,0,1,2.48-1.09,11.25,11.25,0,0,1,3-.38,9.42,9.42,0,0,1,7,2.74,16.72,16.72,0,0,1,3.82,6.77,27.3,27.3,0,0,1,.71,3l.56,3.09c.08,1.27.18,2.48.27,3.65s.13,2.43.13,3.6A43.59,43.59,0,0,1,145.3,89.17Zm77.12-41.72a8.51,8.51,0,0,1-1.87,5.6,6.2,6.2,0,0,1-5.12,2.21c-1.93,0-3.31-.5-4.1-1.46A17.87,17.87,0,0,1,209,49.89a1,1,0,0,0-.11-.32l-.09-.24a12,12,0,0,0-2.14-3.24,5.69,5.69,0,0,0-4.32-1.54c-2.92,0-4.82.8-5.63,2.37a9.92,9.92,0,0,0-1.06,4.59v52.56c0,1.26-.29,1.58-.34,1.63s-.52.35-1.64.35H178c-1.28,0-1.67-.27-1.77-.35s-.34-.35-.34-1.76V47.72a10.07,10.07,0,0,1,.7-4.48,6.08,6.08,0,0,1,2.69-2.35,28,28,0,0,1,5.5-2.16c2-.58,4.15-1.1,6.25-1.54,2.74-.44,5.42-.75,8-.93s4.73-.27,6.5-.27c.78,0,1.93,0,3.53.13a24.6,24.6,0,0,1,4.75.78,15,15,0,0,1,6,3.31C221.56,41.72,222.42,44.16,222.42,47.45Zm51.36,54.43a9.28,9.28,0,0,0,.86-1A6.93,6.93,0,0,0,276,98.39a15.23,15.23,0,0,0,.51-2.81,8.61,8.61,0,0,0,.14-1.53V55c0-1.13-.05-2.43-.14-3.87a19.09,19.09,0,0,0-.77-4.25,14,14,0,0,0-2.09-4.17,14.74,14.74,0,0,0-4-3.67,18.94,18.94,0,0,0-3.88-1.64,36.92,36.92,0,0,0-4.42-1.06,31.38,31.38,0,0,0-3.39-.33c-1.16,0-2.27-.06-3.34-.06-8.63,0-15.29,1.36-19.81,4.06s-7.23,5.57-8.23,8.66a9.19,9.19,0,0,0-.49,2.94A7.75,7.75,0,0,0,228.16,57c1.4,1.55,3.39,2.31,6.1,2.31s4.47-.64,5.43-1.91a20,20,0,0,0,2.66-4.65,1.3,1.3,0,0,1,.15-.41,6.75,6.75,0,0,1,.48-1.29q.26-.5.51-1.14l0-.1a10.14,10.14,0,0,1,2.55-3,7.42,7.42,0,0,1,4.83-1.44c2.91,0,4.89.92,5.89,2.75a12.34,12.34,0,0,1,1.47,5.31,8.56,8.56,0,0,1,.14,1.54v9.46h-1a1.54,1.54,0,0,0-.3,0,5.55,5.55,0,0,0-.6.19A122.93,122.93,0,0,0,233,72.27c-6.84,3.06-10.17,8.59-10.17,16.9,0,5.27,1.47,9.21,4.39,11.71a25.2,25.2,0,0,0,10,5.34,34.54,34.54,0,0,0,7.86,1.39c2.54.14,4.46.2,5.7.2a52.19,52.19,0,0,0,13.75-1.51,26.39,26.39,0,0,0,8-3.45A8.12,8.12,0,0,0,273.78,101.88ZM258.42,90.66a10.9,10.9,0,0,1-.15,1.79,10.11,10.11,0,0,1-1.88,4c-1,1.39-2.85,2.09-5.33,2.09a4.58,4.58,0,0,1-.95-.09,3,3,0,0,0-.54,0l-.2,0A10,10,0,0,1,244,95.2c-1.61-1.76-2.43-4.43-2.43-7.92,0-5.33,1.74-9,5.18-11a55.45,55.45,0,0,1,10.42-4.48l1.3-.41Zm88-40.28c.13,1.5.2,2.84.2,4V103.8c0,1.38-.3,1.78-.39,1.87s-.47.38-2.14.38l-14.95.14a2.66,2.66,0,0,1-1.68-.52c-.11-.12-.38-.51-.38-1.73V57.61a38.94,38.94,0,0,0-.28-5.29,7.62,7.62,0,0,0-2-4.06l-.09-.07A10.67,10.67,0,0,0,322,46.47a10,10,0,0,0-3.06-.82,3.48,3.48,0,0,0-1-.15h-.81c-3.37,0-5.78.86-7.14,2.54a11,11,0,0,0-2.39,5.26q-.13,1.25-.21,2.28c0,.68-.07,1.36-.07,2v46.6c0,1-.22,1.42-.35,1.49a4.8,4.8,0,0,1-2.18.35l-14.95.14c-1.2-.09-1.57-.39-1.67-.52a3.38,3.38,0,0,1-.52-1.87v-54a14.31,14.31,0,0,1,1.52-6.46c.65-1.29,3.06-3.24,10.89-5.17a36,36,0,0,1,3.82-.86c1.34-.22,2.74-.42,4.19-.61,1.75-.26,3.52-.44,5.25-.53s3.41-.13,4.89-.13a66.49,66.49,0,0,1,11,.73,35.13,35.13,0,0,1,6.53,1.65,17.07,17.07,0,0,1,2.24,1,11.59,11.59,0,0,1,1.3.8l.09.06A14.25,14.25,0,0,1,342.89,43,14.72,14.72,0,0,1,345,46,11,11,0,0,1,346.44,50.38ZM409.5,103c.21-.12.45-.27.7-.44a7.44,7.44,0,0,0,3.31-4.14,29.17,29.17,0,0,0,.72-5.35V6.41c0-1.28-.27-1.55-.27-1.56a6.58,6.58,0,0,0-2.19-.43H397.35a4.41,4.41,0,0,0-2,.43c-.33.17-.53.9-.53,1.95V39.42l-1.55-1a6.59,6.59,0,0,0-.71-.42l-.95-.47a21.8,21.8,0,0,0-3.39-1.15,21.11,21.11,0,0,0-5.1-.51c-9.12,0-16,3.71-21,11.34a47.22,47.22,0,0,0-7.63,26.54c0,10.1,2.59,18.41,7.7,24.7s13.35,9.38,24.63,9.38a57.77,57.77,0,0,0,12.71-1.33,38.84,38.84,0,0,0,9.17-3C409,103.28,409.29,103.14,409.5,103ZM394.83,88.83a10.53,10.53,0,0,1-.15,1.72A8.1,8.1,0,0,1,393,94.46c-1,1.29-2.68,1.94-5,1.94-4.84,0-8.44-2.73-10.67-8.13a45.22,45.22,0,0,1-3.19-17.39,44.68,44.68,0,0,1,3.26-17.52c2.28-5.39,5.94-8.13,10.88-8.13a8.83,8.83,0,0,1,3.2.54,18.48,18.48,0,0,1,2.13,1,1.49,1.49,0,0,1,.39.13,2.2,2.2,0,0,1,.53.39l.3.29Zm77.78-8a6.14,6.14,0,0,1,.82,3.6,20,20,0,0,1-.39,3.81,25.22,25.22,0,0,1-1.18,4.12,25.55,25.55,0,0,1-7.7,10.69c-3.68,3.16-8.84,4.76-15.33,4.76-8.77,0-15.06-2.93-19.23-9A43.65,43.65,0,0,1,422,78.44a24.83,24.83,0,0,1-.32-3.06c-.05-1-.07-2-.07-3a60.34,60.34,0,0,1,.4-6.6,45,45,0,0,1,1.46-7.23,38,38,0,0,1,8.91-15.64c4.26-4.59,10.73-6.92,19.25-6.92,5.89,0,10.54,1.25,13.83,3.72A19.9,19.9,0,0,1,472.28,48a14,14,0,0,1,.76,2.59,13.13,13.13,0,0,1,.25,2.45,8.68,8.68,0,0,1-2.36,6.29,7.56,7.56,0,0,1-7.12,2.34,5.67,5.67,0,0,1-1.71-.6A7,7,0,0,1,460,59.54a8.21,8.21,0,0,1-1.72-2.79c-.1-.3-.22-.61-.37-1h0c-.12-.28-.23-.55-.34-.87a20.4,20.4,0,0,0-3-5,7.06,7.06,0,0,0-5.78-2.53c-3.37,0-6,1.77-7.93,5.26a26.57,26.57,0,0,0-3.09,10.76,5.51,5.51,0,0,0-.14,1.3v1.15c0,1,0,2.08.14,3.14s.23,2.15.42,3.28a31.92,31.92,0,0,0,5.1,12.3A12.41,12.41,0,0,0,454,90.44a11.31,11.31,0,0,0,6.75-1.81,17.89,17.89,0,0,0,3.94-3.87c.28-.37.53-.71.76-1a7.53,7.53,0,0,0,.66-1.09l.51-.76a4.47,4.47,0,0,1,.55-.66l.11-.12a5.88,5.88,0,0,1,1.28-1.34,2.25,2.25,0,0,1,1.43-.41,1.94,1.94,0,0,1,.4,0,3.68,3.68,0,0,0,.63.09A3.92,3.92,0,0,1,472.61,80.83Zm67.46-8.32V70a1.43,1.43,0,0,0-.08-.44l0-.26a42.39,42.39,0,0,0-8.28-23C526.69,39.45,519,36,508.83,36a31,31,0,0,0-22,8.93c-6.22,5.92-9.37,15.07-9.37,27.18,0,11.42,3,20.33,8.93,26.47a29.7,29.7,0,0,0,22.17,9.24c9.32,0,17-3.23,22.76-9.62S540.07,83.13,540.07,72.51Zm-20.48,1.15a17.37,17.37,0,0,1-.15,2.22,44.61,44.61,0,0,1-2.69,13.17c-1.65,4.34-4.27,6.54-7.78,6.54s-6-2.08-7.7-6.17a44.44,44.44,0,0,1-3-12.47,29.53,29.53,0,0,1-.34-3.52c-.05-1.1-.07-2.23-.07-3.36,0-.85,0-1.71.07-2.56s.07-1.65.07-2.45a42.27,42.27,0,0,1,2.78-12.43c1.6-4,4.19-6,7.7-6,3.68,0,6.5,2.4,8.38,7.13h0a46.86,46.86,0,0,1,2.78,16.34Zm96.95,30.19a3.31,3.31,0,0,0-.25.77.43.43,0,0,0,0,0l-.15.27c-.26.69-.5.86-.57.9a3.13,3.13,0,0,1-1.47.21H601.76a3.39,3.39,0,0,1-1.92-.35,3.91,3.91,0,0,1-1.05-1.65l-9.88-32.48-10.16,32.27a2.92,2.92,0,0,0-.24.66,1.66,1.66,0,0,1-.13.35l-.06.13c-.2.61-.42.84-.5.87a5.13,5.13,0,0,1-1.8.2H563.29a4.09,4.09,0,0,1-1.72-.23c-.08,0-.35-.22-.69-.93a2.59,2.59,0,0,0-.1-.4,4.56,4.56,0,0,0-.21-.5l-18.4-63c-.19-.65-.33-1.11-.42-1.39a1.17,1.17,0,0,1-.08-.36v-.27a1,1,0,0,1,.12-.6,1.47,1.47,0,0,1,.61-.33l.2-.07.1,0h16.66a3.88,3.88,0,0,1,2,.3s.36.27.69,1.79L573,84.9l13.22-44.81c.09-.19.16-.37.22-.52a2.71,2.71,0,0,0,.11-.58,2.09,2.09,0,0,1,.56-.9s.31-.21,1.15-.21h6.53a.78.78,0,0,1,.36.19,6.23,6.23,0,0,1,.53.75,2.43,2.43,0,0,0,.08.47A2.83,2.83,0,0,0,596,40l13.49,44.87,11-44.49a3.28,3.28,0,0,0,.23-.64,3.11,3.11,0,0,0,.09-.6,2.18,2.18,0,0,1,.56-1s.28-.21,1.43-.21h11.37a2.5,2.5,0,0,1,1.22.29c.19.11.22.51.22.75v.27a2.08,2.08,0,0,1-.09.47q-.15.48-.54,2Zm70.37-56.4a8.51,8.51,0,0,1-1.87,5.6,6.2,6.2,0,0,1-5.12,2.21c-1.93,0-3.31-.5-4.1-1.46a18,18,0,0,1-2.38-3.91,1,1,0,0,0-.11-.32l-.09-.24a12,12,0,0,0-2.14-3.24,5.69,5.69,0,0,0-4.32-1.54c-2.92,0-4.82.8-5.63,2.37a9.92,9.92,0,0,0-1.06,4.59v52.56c0,1.26-.29,1.58-.34,1.63s-.52.35-1.64.35H642.53c-1.28,0-1.68-.27-1.77-.35s-.34-.35-.34-1.76V47.72a10.07,10.07,0,0,1,.7-4.48,6.08,6.08,0,0,1,2.69-2.35,27.76,27.76,0,0,1,5.5-2.16c2-.58,4.15-1.1,6.25-1.54,2.74-.44,5.42-.75,8-.93S668.26,36,670,36c.78,0,1.93,0,3.53.13a24.6,24.6,0,0,1,4.75.78,15,15,0,0,1,6,3.31C686.05,41.72,686.91,44.16,686.91,47.45Zm34.91,76.24a37,37,0,0,1-7.72,10.62c-3.17,3.09-7.75,4.66-13.59,4.66-4.39,0-7.59-1-9.51-3a9.27,9.27,0,0,1-2.9-6.56,7.63,7.63,0,0,1,2.11-5.41,6.64,6.64,0,0,1,5.15-2.25,8.43,8.43,0,0,1,2.06.24c.71.17,1.38.35,1.93.5.72.28,1.3.51,1.76.72a4.69,4.69,0,0,0,1.75.43,2,2,0,0,0,.7.14H704a6.41,6.41,0,0,0,5-2.31,21.23,21.23,0,0,0,3.32-6,13.21,13.21,0,0,0,.74-1.85,15.41,15.41,0,0,1,.64-1.72l.15-.36L689,41.07c-.28-.92-.46-1.51-.56-1.79a1.23,1.23,0,0,1-.08-.36v-.14a.79.79,0,0,1,.14-.56A.89.89,0,0,1,689,38l.31-.05a1.76,1.76,0,0,1,.36-.09h16.94a5.11,5.11,0,0,1,1.82.19s.23.14.48.89l.05.12a2,2,0,0,1,.12.37,7.33,7.33,0,0,0,.22.83l12.87,45,13.18-44.66c.08-.35.17-.68.26-1a.74.74,0,0,1,.15-.31l.15-.15L736,39a1.94,1.94,0,0,1,.54-.93,3.26,3.26,0,0,1,1.5-.19h12a4.84,4.84,0,0,1,1,.37s.12.14.12.67a6.59,6.59,0,0,1-.06.82,6.87,6.87,0,0,1-.43,1.43l-25.46,74.48-1.48,3.84C723.16,120.85,722.54,122.26,721.82,123.69ZM770.83,18A12.2,12.2,0,1,1,758.6,30.19,12.18,12.18,0,0,1,770.83,18Zm0,2.48a9.72,9.72,0,1,0,9.7,9.74A9.7,9.7,0,0,0,770.82,20.48ZM777,36.29c-1.16,0-2.17,0-3.18,0a.79.79,0,0,1-.51-.41c-.52-1-1-2-1.5-3a2.41,2.41,0,0,0-3-1.34v4.7h-3.24V23.52h1.09l5.26.1a3.12,3.12,0,0,1,.67.11c1.81.39,2.61,1.22,2.8,2.9a3.2,3.2,0,0,1-2.1,3.59s-.07,0-.16.12c1.38.6,1.88,1.88,2.48,3.08C776,34.34,776.46,35.26,777,36.29Zm-8.21-7a21,21,0,0,0,2.3-.19c.72-.14,1-.67,1-1.58s-.3-1.32-1-1.43a21.14,21.14,0,0,0-2.29-.15Z"/></g></g></svg>