<?xml version="1.0" encoding="utf-8"?>
<!-- Generator: Adobe Illustrator 22.0.1, SVG Export Plug-In . SVG Version: 6.00 Build 0)  -->
<svg version="1.1" id="Layer_1" xmlns="http://www.w3.org/2000/svg" xmlns:xlink="http://www.w3.org/1999/xlink" x="0px" y="0px"
	 viewBox="0 0 386 383" style="enable-background:new 0 0 386 383;" xml:space="preserve">
<style type="text/css">
	.st0{fill:#E53E3E;enable-background:new    ;}
	.st1{fill:#FFFFFF;}
</style>
<g>
	<path class="st0" d="M265.6-1h-167C78.9-1,62.9,15,62.9,34.8v310.1c0,19.8,16,35.8,35.8,35.8l0,0h167c19.8,0,35.8-16,35.8-35.8l0,0
		V34.8C301.4,15,285.4-1,265.6-1z M182.1,356.8c-13.2,0-23.9-10.7-23.9-23.9c0-13.2,10.7-23.9,23.9-23.9S206,319.8,206,333
		C206,346.1,195.3,356.8,182.1,356.8z M265.6,276.3c0,4.9-4,8.9-8.9,8.9H107.6c-4.9,0-8.9-4-8.9-8.9V43.7c0-4.9,4-8.9,8.9-8.9h149.1
		c4.9,0,8.9,4,8.9,8.9V276.3z"/>
	<path class="st1" d="M265.6,276.3c0,4.9-4,8.9-8.9,8.9H107.6c-4.9,0-8.9-4-8.9-8.9V43.7c0-4.9,4-8.9,8.9-8.9h149.1
		c4.9,0,8.9,4,8.9,8.9V276.3z"/>
</g>
</svg>
