<?xml version="1.0" encoding="utf-8"?>
<!-- Generator: Adobe Illustrator 22.0.1, SVG Export Plug-In . SVG Version: 6.00 Build 0)  -->
<svg version="1.1" id="Layer_1" xmlns="http://www.w3.org/2000/svg" xmlns:xlink="http://www.w3.org/1999/xlink" x="0px" y="0px"
	 viewBox="0 0 386 383" style="enable-background:new 0 0 386 383;" xml:space="preserve">
<style type="text/css">
	.st0{fill:#E53E3E;enable-background:new    ;}
	.st1{fill:#FFFFFF;}
</style>
<g>
	<path class="st0" d="M383.9,204.7C368.3,169.5,347.7,91.2,329.3,65C300.1,23.6,252.7-1,202.1-1l-55.4,0C67.3-1,3,63.3,3,142.6
		c0,40.8,17.4,79.7,47.9,106.8l0,132.5l191.5,0v-47.9h47.9c26.4,0,47.9-21.4,47.9-47.9l0-47.9h23.9c13.2,0,23.9-10.7,23.9-24
		C386,211.1,385.3,207.8,383.9,204.7z M254.3,154.6h-38.1c1.4,3.8,2.2,7.9,2.2,12c0,19.8-16.1,35.9-35.9,35.9c-4.1,0-8.1-0.8-12-2.2
		v38.1h-47.9l0-38.1c-3.8,1.4-7.9,2.2-12,2.2c-19.8,0-35.9-16.1-35.9-35.9c0-0.7,0.2-1.4,0.2-2.1c-18.7-6.4-28.6-26.8-22.2-45.5
		c5-14.5,18.6-24.2,34-24.2c0-19.8,16.1-35.9,35.9-35.9c6.2,0,12.3,1.7,17.6,4.8c10.5-16.7,32.5-21.8,49.2-11.3
		c4.6,2.9,8.4,6.7,11.3,11.3c16.9-9.8,38.6-4.1,48.4,12.9c1.2,2,2.1,4.1,2.9,6.3h2.2c19.8,0,35.9,16.1,35.9,35.9
		S274.2,154.6,254.3,154.6z"/>
	<path class="st1" d="M52.8,118.9c5-14.5,18.6-24.2,34-24.2c0-19.8,16.1-35.9,35.9-35.9c6.2,0,12.3,1.7,17.6,4.8
		c10.5-16.7,32.5-21.8,49.2-11.3c4.6,2.9,8.4,6.7,11.3,11.3c16.9-9.8,38.6-4.1,48.4,12.9c1.2,2,2.1,4.1,2.9,6.3h2.2
		c19.8,0,35.9,16.1,35.9,35.9s-16.1,35.9-35.9,35.9h-38.1c1.4,3.8,2.2,7.9,2.2,12c0,19.8-16.1,35.9-35.9,35.9c-4.1,0-8.1-0.8-12-2.2
		v38.1h-47.9l0-38.1c-3.8,1.4-7.9,2.2-12,2.2c-19.8,0-35.9-16.1-35.9-35.9c0-0.7,0.2-1.4,0.2-2.1C56.3,158,46.4,137.6,52.8,118.9z"
		/>
</g>
</svg>
